G04 #@! TF.GenerationSoftware,KiCad,Pcbnew,(5.0.0-rc2-dev-158-g52ab6216c)*
G04 #@! TF.CreationDate,2018-04-08T22:30:40+02:00*
G04 #@! TF.ProjectId,power_monitor,706F7765725F6D6F6E69746F722E6B69,rev?*
G04 #@! TF.SameCoordinates,Original*
G04 #@! TF.FileFunction,Copper,L1,Top,Signal*
G04 #@! TF.FilePolarity,Positive*
%FSLAX46Y46*%
G04 Gerber Fmt 4.6, Leading zero omitted, Abs format (unit mm)*
G04 Created by KiCad (PCBNEW (5.0.0-rc2-dev-158-g52ab6216c)) date 04/08/18 22:30:40*
%MOMM*%
%LPD*%
G01*
G04 APERTURE LIST*
%ADD10C,2.000000*%
%ADD11R,1.000000X0.845000*%
%ADD12R,0.845000X1.000000*%
%ADD13C,1.676868*%
%ADD14C,0.100000*%
%ADD15C,1.000000*%
%ADD16R,0.500000X1.500000*%
%ADD17R,1.000000X1.500000*%
%ADD18R,0.500000X0.400000*%
%ADD19R,3.000000X2.000000*%
%ADD20O,3.000000X2.000000*%
%ADD21O,2.000000X3.000000*%
%ADD22R,0.800000X1.900000*%
%ADD23C,1.600000*%
%ADD24R,1.550000X0.600000*%
%ADD25R,3.600000X1.800000*%
%ADD26O,3.600000X1.800000*%
%ADD27R,3.600000X2.000000*%
%ADD28O,3.600000X2.000000*%
%ADD29C,0.800000*%
%ADD30C,0.600000*%
%ADD31C,0.200000*%
%ADD32C,0.800000*%
%ADD33C,0.400000*%
%ADD34C,1.600000*%
%ADD35C,0.254000*%
G04 APERTURE END LIST*
D10*
X56300000Y-43500000D03*
X56300000Y-48500000D03*
X85700000Y-38300000D03*
X85700000Y-53700000D03*
D11*
X89500000Y-59287500D03*
X89500000Y-61212500D03*
D12*
X78462500Y-82500000D03*
X76537500Y-82500000D03*
D13*
X86250000Y-66400000D03*
D14*
G36*
X87400000Y-68200000D02*
X85100000Y-68200000D01*
X85700000Y-64600000D01*
X86800000Y-64600000D01*
X87400000Y-68200000D01*
X87400000Y-68200000D01*
G37*
D13*
X86250000Y-60600000D03*
D14*
G36*
X85100000Y-58800000D02*
X87400000Y-58800000D01*
X86800000Y-62400000D01*
X85700000Y-62400000D01*
X85100000Y-58800000D01*
X85100000Y-58800000D01*
G37*
G36*
X78849010Y-79252408D02*
X78897546Y-79259607D01*
X78945143Y-79271530D01*
X78991343Y-79288060D01*
X79035699Y-79309039D01*
X79077786Y-79334265D01*
X79117198Y-79363495D01*
X79153554Y-79396447D01*
X79186506Y-79432803D01*
X79215736Y-79472215D01*
X79240962Y-79514302D01*
X79261941Y-79558658D01*
X79278471Y-79604858D01*
X79290394Y-79652455D01*
X79297593Y-79700991D01*
X79300001Y-79750000D01*
X79300001Y-80250000D01*
X79297593Y-80299009D01*
X79290394Y-80347545D01*
X79278471Y-80395142D01*
X79261941Y-80441342D01*
X79240962Y-80485698D01*
X79215736Y-80527785D01*
X79186506Y-80567197D01*
X79153554Y-80603553D01*
X79117198Y-80636505D01*
X79077786Y-80665735D01*
X79035699Y-80690961D01*
X78991343Y-80711940D01*
X78945143Y-80728470D01*
X78897546Y-80740393D01*
X78849010Y-80747592D01*
X78800001Y-80750000D01*
X78799999Y-80750000D01*
X78750990Y-80747592D01*
X78702454Y-80740393D01*
X78654857Y-80728470D01*
X78608657Y-80711940D01*
X78564301Y-80690961D01*
X78522214Y-80665735D01*
X78482802Y-80636505D01*
X78446446Y-80603553D01*
X78413494Y-80567197D01*
X78384264Y-80527785D01*
X78359038Y-80485698D01*
X78338059Y-80441342D01*
X78321529Y-80395142D01*
X78309606Y-80347545D01*
X78302407Y-80299009D01*
X78299999Y-80250000D01*
X78299999Y-79750000D01*
X78302407Y-79700991D01*
X78309606Y-79652455D01*
X78321529Y-79604858D01*
X78338059Y-79558658D01*
X78359038Y-79514302D01*
X78384264Y-79472215D01*
X78413494Y-79432803D01*
X78446446Y-79396447D01*
X78482802Y-79363495D01*
X78522214Y-79334265D01*
X78564301Y-79309039D01*
X78608657Y-79288060D01*
X78654857Y-79271530D01*
X78702454Y-79259607D01*
X78750990Y-79252408D01*
X78799999Y-79250000D01*
X78800001Y-79250000D01*
X78849010Y-79252408D01*
X78849010Y-79252408D01*
G37*
D15*
X78800000Y-80000000D03*
D16*
X78500000Y-80000000D03*
D17*
X77500000Y-80000000D03*
D14*
G36*
X76249010Y-79252408D02*
X76297546Y-79259607D01*
X76345143Y-79271530D01*
X76391343Y-79288060D01*
X76435699Y-79309039D01*
X76477786Y-79334265D01*
X76517198Y-79363495D01*
X76553554Y-79396447D01*
X76586506Y-79432803D01*
X76615736Y-79472215D01*
X76640962Y-79514302D01*
X76661941Y-79558658D01*
X76678471Y-79604858D01*
X76690394Y-79652455D01*
X76697593Y-79700991D01*
X76700001Y-79750000D01*
X76700001Y-80250000D01*
X76697593Y-80299009D01*
X76690394Y-80347545D01*
X76678471Y-80395142D01*
X76661941Y-80441342D01*
X76640962Y-80485698D01*
X76615736Y-80527785D01*
X76586506Y-80567197D01*
X76553554Y-80603553D01*
X76517198Y-80636505D01*
X76477786Y-80665735D01*
X76435699Y-80690961D01*
X76391343Y-80711940D01*
X76345143Y-80728470D01*
X76297546Y-80740393D01*
X76249010Y-80747592D01*
X76200001Y-80750000D01*
X76199999Y-80750000D01*
X76150990Y-80747592D01*
X76102454Y-80740393D01*
X76054857Y-80728470D01*
X76008657Y-80711940D01*
X75964301Y-80690961D01*
X75922214Y-80665735D01*
X75882802Y-80636505D01*
X75846446Y-80603553D01*
X75813494Y-80567197D01*
X75784264Y-80527785D01*
X75759038Y-80485698D01*
X75738059Y-80441342D01*
X75721529Y-80395142D01*
X75709606Y-80347545D01*
X75702407Y-80299009D01*
X75699999Y-80250000D01*
X75699999Y-79750000D01*
X75702407Y-79700991D01*
X75709606Y-79652455D01*
X75721529Y-79604858D01*
X75738059Y-79558658D01*
X75759038Y-79514302D01*
X75784264Y-79472215D01*
X75813494Y-79432803D01*
X75846446Y-79396447D01*
X75882802Y-79363495D01*
X75922214Y-79334265D01*
X75964301Y-79309039D01*
X76008657Y-79288060D01*
X76054857Y-79271530D01*
X76102454Y-79259607D01*
X76150990Y-79252408D01*
X76199999Y-79250000D01*
X76200001Y-79250000D01*
X76249010Y-79252408D01*
X76249010Y-79252408D01*
G37*
D15*
X76200000Y-80000000D03*
D16*
X76500000Y-80000000D03*
D18*
X78150000Y-80400000D03*
X78150000Y-79600000D03*
D19*
X81000000Y-59500000D03*
D20*
X81000000Y-67000000D03*
D21*
X60700000Y-59500000D03*
X55660000Y-67000000D03*
X60700000Y-67000000D03*
X55660000Y-59500000D03*
D22*
X93450000Y-59750000D03*
X91550000Y-59750000D03*
X92500000Y-62750000D03*
D12*
X93462500Y-57250000D03*
X91537500Y-57250000D03*
D23*
X94140000Y-94930000D03*
X91600000Y-94930000D03*
X89060000Y-94930000D03*
X86520000Y-94930000D03*
X83980000Y-94930000D03*
X81440000Y-94930000D03*
X78900000Y-94930000D03*
X76360000Y-94930000D03*
X76360000Y-72070000D03*
X78900000Y-72070000D03*
X81440000Y-72070000D03*
X83980000Y-72070000D03*
X86520000Y-72070000D03*
X89060000Y-72070000D03*
X91600000Y-72070000D03*
X94140000Y-72070000D03*
D24*
X68300000Y-74095000D03*
X68300000Y-75365000D03*
X68300000Y-76635000D03*
X68300000Y-77905000D03*
X73700000Y-77905000D03*
X73700000Y-76635000D03*
X73700000Y-75365000D03*
X73700000Y-74095000D03*
D12*
X78037500Y-75500000D03*
X79962500Y-75500000D03*
X79537500Y-77250000D03*
X81462500Y-77250000D03*
D25*
X97250000Y-67750000D03*
D26*
X97250000Y-63940000D03*
X97250000Y-60130000D03*
X97250000Y-56320000D03*
X97250000Y-38570000D03*
X97250000Y-42380000D03*
X97250000Y-46190000D03*
D25*
X97250000Y-50000000D03*
X97250000Y-87500000D03*
D26*
X97250000Y-83690000D03*
X97250000Y-79880000D03*
D27*
X49000000Y-43250000D03*
D28*
X49000000Y-48250000D03*
X49000000Y-84500000D03*
D27*
X49000000Y-79500000D03*
D29*
X91400000Y-66400000D03*
X94250000Y-55500000D03*
X79000000Y-92500000D03*
X82750000Y-92500000D03*
X92500000Y-64500000D03*
X78250000Y-77000000D03*
X73500000Y-80250000D03*
X82000000Y-75500000D03*
X84750000Y-57000000D03*
X89500000Y-56500000D03*
X76000000Y-75500000D03*
D30*
X97250000Y-79880000D02*
X83880000Y-79880000D01*
X83880000Y-79880000D02*
X83250000Y-79250000D01*
X89100000Y-66400000D02*
X90250000Y-66400000D01*
X90250000Y-66400000D02*
X91400000Y-66400000D01*
D31*
X91537500Y-55662500D02*
X91700000Y-55500000D01*
X91700000Y-55500000D02*
X94250000Y-55500000D01*
X91537500Y-57250000D02*
X91537500Y-55662500D01*
D30*
X94250000Y-54550000D02*
X97250000Y-51550000D01*
X94250000Y-55500000D02*
X94250000Y-54550000D01*
X97250000Y-51550000D02*
X97250000Y-50000000D01*
X89500000Y-59287500D02*
X91462500Y-59287500D01*
X91462500Y-59287500D02*
X91500000Y-59250000D01*
X89500000Y-59287500D02*
X86462500Y-59287500D01*
X86462500Y-59287500D02*
X86000000Y-59750000D01*
D32*
X81000000Y-59500000D02*
X85150000Y-59500000D01*
X85150000Y-59500000D02*
X86000000Y-59500000D01*
D30*
X73700000Y-68050000D02*
X73700000Y-74095000D01*
X76360000Y-94930000D02*
X76360000Y-86140000D01*
X76360000Y-86140000D02*
X80000000Y-82500000D01*
X82500000Y-80000000D02*
X80000000Y-82500000D01*
X80000000Y-82500000D02*
X78462500Y-82500000D01*
X89500000Y-61212500D02*
X89500000Y-66000000D01*
X89500000Y-66000000D02*
X89100000Y-66400000D01*
X89100000Y-66400000D02*
X86650000Y-66400000D01*
X86650000Y-66400000D02*
X86500000Y-66250000D01*
X82500000Y-80000000D02*
X83250000Y-79250000D01*
X78800000Y-80000000D02*
X82500000Y-80000000D01*
X83250000Y-79250000D02*
X83250000Y-75000000D01*
X83250000Y-75000000D02*
X82345000Y-74095000D01*
X82345000Y-74095000D02*
X73700000Y-74095000D01*
X73700000Y-58800000D02*
X78800000Y-53700000D01*
X78800000Y-53700000D02*
X85700000Y-53700000D01*
X73700000Y-68050000D02*
X73700000Y-58800000D01*
X74750000Y-67000000D02*
X73700000Y-68050000D01*
X81000000Y-67000000D02*
X74750000Y-67000000D01*
D32*
X81000000Y-67000000D02*
X85650000Y-67000000D01*
X85650000Y-67000000D02*
X86250000Y-66400000D01*
D30*
X73700000Y-79500000D02*
X73700000Y-80050000D01*
X73700000Y-77905000D02*
X73700000Y-79500000D01*
X76537500Y-82500000D02*
X74750000Y-82500000D01*
X74750000Y-82500000D02*
X73700000Y-81450000D01*
X73700000Y-81450000D02*
X73700000Y-79500000D01*
X92500000Y-62750000D02*
X92500000Y-64500000D01*
X78500000Y-77250000D02*
X78250000Y-77000000D01*
X79537500Y-77250000D02*
X78500000Y-77250000D01*
X76200000Y-80000000D02*
X73750000Y-80000000D01*
X73750000Y-80000000D02*
X73500000Y-80250000D01*
X73700000Y-80050000D02*
X73500000Y-80250000D01*
D33*
X74250000Y-80000000D02*
X73700000Y-79450000D01*
X73700000Y-79450000D02*
X73700000Y-78605000D01*
X76200000Y-80000000D02*
X74250000Y-80000000D01*
X73700000Y-77905000D02*
X73700000Y-78605000D01*
D34*
X52400000Y-84500000D02*
X64000000Y-84500000D01*
X49000000Y-84500000D02*
X52400000Y-84500000D01*
D30*
X67000000Y-77250000D02*
X66750000Y-76750000D01*
X66750000Y-77750000D02*
X67000000Y-77250000D01*
X66905000Y-77905000D02*
X66750000Y-77750000D01*
X68300000Y-77905000D02*
X66905000Y-77905000D01*
X66750000Y-76750000D02*
X66750000Y-76830000D01*
X66865000Y-76635000D02*
X66750000Y-76750000D01*
X68300000Y-76635000D02*
X66865000Y-76635000D01*
D33*
X76385000Y-76635000D02*
X77500000Y-77750000D01*
X77500000Y-77750000D02*
X77500000Y-80000000D01*
X73700000Y-76635000D02*
X76385000Y-76635000D01*
D31*
X82000000Y-75500000D02*
X80985000Y-75500000D01*
D33*
X81462500Y-75977500D02*
X80985000Y-75500000D01*
D31*
X99500000Y-91000000D02*
X100750000Y-89750000D01*
X89060000Y-91940000D02*
X90000000Y-91000000D01*
X90000000Y-91000000D02*
X99500000Y-91000000D01*
X89060000Y-94930000D02*
X89060000Y-91940000D01*
X100750000Y-61000000D02*
X99880000Y-60130000D01*
X100750000Y-89750000D02*
X100750000Y-61000000D01*
X99880000Y-60130000D02*
X97250000Y-60130000D01*
X91500000Y-48500000D02*
X91500000Y-44500000D01*
X88400000Y-51600000D02*
X91500000Y-48500000D01*
X88400000Y-54600000D02*
X88400000Y-51600000D01*
X86399999Y-56600001D02*
X88400000Y-54600000D01*
X84750000Y-57000000D02*
X85149999Y-56600001D01*
X85149999Y-56600001D02*
X86399999Y-56600001D01*
X91500000Y-44500000D02*
X95500000Y-40500000D01*
X95500000Y-40500000D02*
X96420000Y-40500000D01*
X96420000Y-40500000D02*
X97250000Y-39670000D01*
X97250000Y-39670000D02*
X97250000Y-38570000D01*
X89500000Y-56500000D02*
X93750000Y-52250000D01*
X93750000Y-52250000D02*
X93750000Y-49750000D01*
X96350000Y-42380000D02*
X97250000Y-42380000D01*
X93750000Y-49750000D02*
X93750000Y-44980000D01*
X93750000Y-44980000D02*
X96350000Y-42380000D01*
X81440000Y-72070000D02*
X83120000Y-73750000D01*
X83120000Y-73750000D02*
X97750000Y-73750000D01*
X97750000Y-73750000D02*
X99750000Y-75750000D01*
X99750000Y-75750000D02*
X99750000Y-82090000D01*
X99750000Y-82090000D02*
X98150000Y-83690000D01*
X98150000Y-83690000D02*
X97250000Y-83690000D01*
D33*
X94500000Y-60000000D02*
X94250000Y-59750000D01*
X94500000Y-68500000D02*
X94500000Y-60000000D01*
X94250000Y-59750000D02*
X93450000Y-59750000D01*
X93000000Y-70000000D02*
X94500000Y-68500000D01*
X79500000Y-70000000D02*
X93000000Y-70000000D01*
X78900000Y-72070000D02*
X78900000Y-70600000D01*
X78900000Y-70600000D02*
X79500000Y-70000000D01*
D30*
X93462500Y-57250000D02*
X93462500Y-59737500D01*
X93462500Y-59737500D02*
X93450000Y-59750000D01*
D33*
X73700000Y-75365000D02*
X75865000Y-75365000D01*
X75865000Y-75365000D02*
X76000000Y-75500000D01*
X78037500Y-75500000D02*
X76000000Y-75500000D01*
X80985000Y-75500000D02*
X79962500Y-75500000D01*
X81462500Y-77250000D02*
X81462500Y-75977500D01*
D34*
X67250000Y-61450000D02*
X67250000Y-74750000D01*
X67250000Y-61450000D02*
X65300000Y-59500000D01*
X65300000Y-59500000D02*
X60700000Y-59500000D01*
D30*
X66750000Y-74250000D02*
X66905000Y-74095000D01*
X66905000Y-74095000D02*
X68300000Y-74095000D01*
X66750000Y-75190000D02*
X66750000Y-74250000D01*
X68300000Y-75365000D02*
X66925000Y-75365000D01*
X66925000Y-75365000D02*
X66750000Y-75190000D01*
D35*
G36*
X83518303Y-80753215D02*
X83788698Y-80807000D01*
X83788699Y-80807000D01*
X83880000Y-80825161D01*
X83971301Y-80807000D01*
X95132895Y-80807000D01*
X95249095Y-80980905D01*
X95373000Y-81063696D01*
X95373000Y-82506304D01*
X95249095Y-82589095D01*
X94911598Y-83094194D01*
X94793085Y-83690000D01*
X94911598Y-84285806D01*
X95249095Y-84790905D01*
X95373000Y-84873696D01*
X95373000Y-85965000D01*
X95323690Y-85965000D01*
X95090301Y-86061673D01*
X94911673Y-86240302D01*
X94815000Y-86473691D01*
X94815000Y-87214250D01*
X94973750Y-87373000D01*
X95373000Y-87373000D01*
X95373000Y-87627000D01*
X94973750Y-87627000D01*
X94815000Y-87785750D01*
X94815000Y-88526309D01*
X94911673Y-88759698D01*
X95090301Y-88938327D01*
X95323690Y-89035000D01*
X95373000Y-89035000D01*
X95373000Y-90273000D01*
X90071595Y-90273000D01*
X90000000Y-90258759D01*
X89928405Y-90273000D01*
X89928401Y-90273000D01*
X89716339Y-90315182D01*
X89475863Y-90475863D01*
X89435305Y-90536562D01*
X88596562Y-91375306D01*
X88535864Y-91415863D01*
X88495307Y-91476561D01*
X88495306Y-91476562D01*
X88375182Y-91656340D01*
X88318759Y-91940000D01*
X88333001Y-92011600D01*
X88333000Y-93686559D01*
X88251669Y-93720247D01*
X87850247Y-94121669D01*
X87790000Y-94267119D01*
X87729753Y-94121669D01*
X87328331Y-93720247D01*
X86803848Y-93503000D01*
X86236152Y-93503000D01*
X85711669Y-93720247D01*
X85310247Y-94121669D01*
X85250000Y-94267119D01*
X85189753Y-94121669D01*
X84788331Y-93720247D01*
X84263848Y-93503000D01*
X83696152Y-93503000D01*
X83171669Y-93720247D01*
X82770247Y-94121669D01*
X82710000Y-94267119D01*
X82649753Y-94121669D01*
X82248331Y-93720247D01*
X81723848Y-93503000D01*
X81156152Y-93503000D01*
X80631669Y-93720247D01*
X80230247Y-94121669D01*
X80180804Y-94241035D01*
X80153864Y-94175995D01*
X79907745Y-94101861D01*
X79079605Y-94930000D01*
X79907745Y-95758139D01*
X80153864Y-95684005D01*
X80178897Y-95614361D01*
X80230247Y-95738331D01*
X80631669Y-96139753D01*
X81156152Y-96357000D01*
X81723848Y-96357000D01*
X82248331Y-96139753D01*
X82649753Y-95738331D01*
X82710000Y-95592881D01*
X82770247Y-95738331D01*
X83171669Y-96139753D01*
X83696152Y-96357000D01*
X84263848Y-96357000D01*
X84788331Y-96139753D01*
X85189753Y-95738331D01*
X85250000Y-95592881D01*
X85310247Y-95738331D01*
X85711669Y-96139753D01*
X86236152Y-96357000D01*
X86803848Y-96357000D01*
X87328331Y-96139753D01*
X87729753Y-95738331D01*
X87790000Y-95592881D01*
X87850247Y-95738331D01*
X88251669Y-96139753D01*
X88776152Y-96357000D01*
X89343848Y-96357000D01*
X89868331Y-96139753D01*
X90269753Y-95738331D01*
X90330000Y-95592881D01*
X90390247Y-95738331D01*
X90791669Y-96139753D01*
X91316152Y-96357000D01*
X91883848Y-96357000D01*
X92408331Y-96139753D01*
X92809753Y-95738331D01*
X92870000Y-95592881D01*
X92930247Y-95738331D01*
X93331669Y-96139753D01*
X93856152Y-96357000D01*
X94423848Y-96357000D01*
X94948331Y-96139753D01*
X95349753Y-95738331D01*
X95373000Y-95682208D01*
X95373000Y-97273000D01*
X79087860Y-97273000D01*
X78260512Y-96225026D01*
X78683223Y-96376965D01*
X79253454Y-96349778D01*
X79654005Y-96183864D01*
X79728139Y-95937745D01*
X78900000Y-95109605D01*
X78885858Y-95123748D01*
X78706252Y-94944142D01*
X78720395Y-94930000D01*
X77892255Y-94101861D01*
X77646136Y-94175995D01*
X77621103Y-94245639D01*
X77569753Y-94121669D01*
X77370339Y-93922255D01*
X78071861Y-93922255D01*
X78900000Y-94750395D01*
X79728139Y-93922255D01*
X79654005Y-93676136D01*
X79116777Y-93483035D01*
X78546546Y-93510222D01*
X78145995Y-93676136D01*
X78071861Y-93922255D01*
X77370339Y-93922255D01*
X77287000Y-93838916D01*
X77287000Y-86523975D01*
X80590924Y-83220051D01*
X80668330Y-83168330D01*
X80720051Y-83090925D01*
X83090928Y-80720048D01*
X83168330Y-80668330D01*
X83220050Y-80590925D01*
X83242227Y-80568748D01*
X83518303Y-80753215D01*
X83518303Y-80753215D01*
G37*
X83518303Y-80753215D02*
X83788698Y-80807000D01*
X83788699Y-80807000D01*
X83880000Y-80825161D01*
X83971301Y-80807000D01*
X95132895Y-80807000D01*
X95249095Y-80980905D01*
X95373000Y-81063696D01*
X95373000Y-82506304D01*
X95249095Y-82589095D01*
X94911598Y-83094194D01*
X94793085Y-83690000D01*
X94911598Y-84285806D01*
X95249095Y-84790905D01*
X95373000Y-84873696D01*
X95373000Y-85965000D01*
X95323690Y-85965000D01*
X95090301Y-86061673D01*
X94911673Y-86240302D01*
X94815000Y-86473691D01*
X94815000Y-87214250D01*
X94973750Y-87373000D01*
X95373000Y-87373000D01*
X95373000Y-87627000D01*
X94973750Y-87627000D01*
X94815000Y-87785750D01*
X94815000Y-88526309D01*
X94911673Y-88759698D01*
X95090301Y-88938327D01*
X95323690Y-89035000D01*
X95373000Y-89035000D01*
X95373000Y-90273000D01*
X90071595Y-90273000D01*
X90000000Y-90258759D01*
X89928405Y-90273000D01*
X89928401Y-90273000D01*
X89716339Y-90315182D01*
X89475863Y-90475863D01*
X89435305Y-90536562D01*
X88596562Y-91375306D01*
X88535864Y-91415863D01*
X88495307Y-91476561D01*
X88495306Y-91476562D01*
X88375182Y-91656340D01*
X88318759Y-91940000D01*
X88333001Y-92011600D01*
X88333000Y-93686559D01*
X88251669Y-93720247D01*
X87850247Y-94121669D01*
X87790000Y-94267119D01*
X87729753Y-94121669D01*
X87328331Y-93720247D01*
X86803848Y-93503000D01*
X86236152Y-93503000D01*
X85711669Y-93720247D01*
X85310247Y-94121669D01*
X85250000Y-94267119D01*
X85189753Y-94121669D01*
X84788331Y-93720247D01*
X84263848Y-93503000D01*
X83696152Y-93503000D01*
X83171669Y-93720247D01*
X82770247Y-94121669D01*
X82710000Y-94267119D01*
X82649753Y-94121669D01*
X82248331Y-93720247D01*
X81723848Y-93503000D01*
X81156152Y-93503000D01*
X80631669Y-93720247D01*
X80230247Y-94121669D01*
X80180804Y-94241035D01*
X80153864Y-94175995D01*
X79907745Y-94101861D01*
X79079605Y-94930000D01*
X79907745Y-95758139D01*
X80153864Y-95684005D01*
X80178897Y-95614361D01*
X80230247Y-95738331D01*
X80631669Y-96139753D01*
X81156152Y-96357000D01*
X81723848Y-96357000D01*
X82248331Y-96139753D01*
X82649753Y-95738331D01*
X82710000Y-95592881D01*
X82770247Y-95738331D01*
X83171669Y-96139753D01*
X83696152Y-96357000D01*
X84263848Y-96357000D01*
X84788331Y-96139753D01*
X85189753Y-95738331D01*
X85250000Y-95592881D01*
X85310247Y-95738331D01*
X85711669Y-96139753D01*
X86236152Y-96357000D01*
X86803848Y-96357000D01*
X87328331Y-96139753D01*
X87729753Y-95738331D01*
X87790000Y-95592881D01*
X87850247Y-95738331D01*
X88251669Y-96139753D01*
X88776152Y-96357000D01*
X89343848Y-96357000D01*
X89868331Y-96139753D01*
X90269753Y-95738331D01*
X90330000Y-95592881D01*
X90390247Y-95738331D01*
X90791669Y-96139753D01*
X91316152Y-96357000D01*
X91883848Y-96357000D01*
X92408331Y-96139753D01*
X92809753Y-95738331D01*
X92870000Y-95592881D01*
X92930247Y-95738331D01*
X93331669Y-96139753D01*
X93856152Y-96357000D01*
X94423848Y-96357000D01*
X94948331Y-96139753D01*
X95349753Y-95738331D01*
X95373000Y-95682208D01*
X95373000Y-97273000D01*
X79087860Y-97273000D01*
X78260512Y-96225026D01*
X78683223Y-96376965D01*
X79253454Y-96349778D01*
X79654005Y-96183864D01*
X79728139Y-95937745D01*
X78900000Y-95109605D01*
X78885858Y-95123748D01*
X78706252Y-94944142D01*
X78720395Y-94930000D01*
X77892255Y-94101861D01*
X77646136Y-94175995D01*
X77621103Y-94245639D01*
X77569753Y-94121669D01*
X77370339Y-93922255D01*
X78071861Y-93922255D01*
X78900000Y-94750395D01*
X79728139Y-93922255D01*
X79654005Y-93676136D01*
X79116777Y-93483035D01*
X78546546Y-93510222D01*
X78145995Y-93676136D01*
X78071861Y-93922255D01*
X77370339Y-93922255D01*
X77287000Y-93838916D01*
X77287000Y-86523975D01*
X80590924Y-83220051D01*
X80668330Y-83168330D01*
X80720051Y-83090925D01*
X83090928Y-80720048D01*
X83168330Y-80668330D01*
X83220050Y-80590925D01*
X83242227Y-80568748D01*
X83518303Y-80753215D01*
G36*
X76673000Y-78092554D02*
X76673000Y-78615000D01*
X76485750Y-78615000D01*
X76351000Y-78749750D01*
X76216250Y-78615000D01*
X76123691Y-78615000D01*
X75975594Y-78676344D01*
X75914250Y-78615000D01*
X75573691Y-78615000D01*
X75340302Y-78711673D01*
X75161673Y-78890301D01*
X75065000Y-79123690D01*
X75065000Y-79714250D01*
X75223750Y-79873000D01*
X76347000Y-79873000D01*
X76347000Y-80127000D01*
X75223750Y-80127000D01*
X75065000Y-80285750D01*
X75065000Y-80876310D01*
X75161673Y-81109699D01*
X75340302Y-81288327D01*
X75573691Y-81385000D01*
X75914250Y-81385000D01*
X75975594Y-81323656D01*
X76072998Y-81364002D01*
X76072998Y-81365000D01*
X75988691Y-81365000D01*
X75755302Y-81461673D01*
X75576673Y-81640301D01*
X75480000Y-81873690D01*
X75480000Y-82214250D01*
X75638750Y-82373000D01*
X76410500Y-82373000D01*
X76410500Y-82353000D01*
X76664500Y-82353000D01*
X76664500Y-82373000D01*
X76684500Y-82373000D01*
X76684500Y-82627000D01*
X76664500Y-82627000D01*
X76664500Y-83476250D01*
X76823250Y-83635000D01*
X77086309Y-83635000D01*
X77319698Y-83538327D01*
X77498327Y-83359699D01*
X77509016Y-83333894D01*
X77587959Y-83452041D01*
X77677293Y-83511732D01*
X75769074Y-85419951D01*
X75691671Y-85471670D01*
X75639952Y-85549073D01*
X75486786Y-85778303D01*
X75414839Y-86140000D01*
X75433001Y-86231305D01*
X75433000Y-92643511D01*
X72615915Y-89075202D01*
X72636911Y-89024513D01*
X72713031Y-88641830D01*
X72713031Y-88641825D01*
X72727000Y-88571599D01*
X72727000Y-82785750D01*
X75480000Y-82785750D01*
X75480000Y-83126310D01*
X75576673Y-83359699D01*
X75755302Y-83538327D01*
X75988691Y-83635000D01*
X76251750Y-83635000D01*
X76410500Y-83476250D01*
X76410500Y-82627000D01*
X75638750Y-82627000D01*
X75480000Y-82785750D01*
X72727000Y-82785750D01*
X72727000Y-78810305D01*
X72798691Y-78840000D01*
X73414250Y-78840000D01*
X73573000Y-78681250D01*
X73573000Y-78032000D01*
X73827000Y-78032000D01*
X73827000Y-78681250D01*
X73985750Y-78840000D01*
X74601309Y-78840000D01*
X74834698Y-78743327D01*
X75013327Y-78564699D01*
X75110000Y-78331310D01*
X75110000Y-78190750D01*
X74951250Y-78032000D01*
X73827000Y-78032000D01*
X73573000Y-78032000D01*
X73553000Y-78032000D01*
X73553000Y-77778000D01*
X73573000Y-77778000D01*
X73573000Y-77758000D01*
X73827000Y-77758000D01*
X73827000Y-77778000D01*
X74951250Y-77778000D01*
X75110000Y-77619250D01*
X75110000Y-77478690D01*
X75103087Y-77462000D01*
X76042447Y-77462000D01*
X76673000Y-78092554D01*
X76673000Y-78092554D01*
G37*
X76673000Y-78092554D02*
X76673000Y-78615000D01*
X76485750Y-78615000D01*
X76351000Y-78749750D01*
X76216250Y-78615000D01*
X76123691Y-78615000D01*
X75975594Y-78676344D01*
X75914250Y-78615000D01*
X75573691Y-78615000D01*
X75340302Y-78711673D01*
X75161673Y-78890301D01*
X75065000Y-79123690D01*
X75065000Y-79714250D01*
X75223750Y-79873000D01*
X76347000Y-79873000D01*
X76347000Y-80127000D01*
X75223750Y-80127000D01*
X75065000Y-80285750D01*
X75065000Y-80876310D01*
X75161673Y-81109699D01*
X75340302Y-81288327D01*
X75573691Y-81385000D01*
X75914250Y-81385000D01*
X75975594Y-81323656D01*
X76072998Y-81364002D01*
X76072998Y-81365000D01*
X75988691Y-81365000D01*
X75755302Y-81461673D01*
X75576673Y-81640301D01*
X75480000Y-81873690D01*
X75480000Y-82214250D01*
X75638750Y-82373000D01*
X76410500Y-82373000D01*
X76410500Y-82353000D01*
X76664500Y-82353000D01*
X76664500Y-82373000D01*
X76684500Y-82373000D01*
X76684500Y-82627000D01*
X76664500Y-82627000D01*
X76664500Y-83476250D01*
X76823250Y-83635000D01*
X77086309Y-83635000D01*
X77319698Y-83538327D01*
X77498327Y-83359699D01*
X77509016Y-83333894D01*
X77587959Y-83452041D01*
X77677293Y-83511732D01*
X75769074Y-85419951D01*
X75691671Y-85471670D01*
X75639952Y-85549073D01*
X75486786Y-85778303D01*
X75414839Y-86140000D01*
X75433001Y-86231305D01*
X75433000Y-92643511D01*
X72615915Y-89075202D01*
X72636911Y-89024513D01*
X72713031Y-88641830D01*
X72713031Y-88641825D01*
X72727000Y-88571599D01*
X72727000Y-82785750D01*
X75480000Y-82785750D01*
X75480000Y-83126310D01*
X75576673Y-83359699D01*
X75755302Y-83538327D01*
X75988691Y-83635000D01*
X76251750Y-83635000D01*
X76410500Y-83476250D01*
X76410500Y-82627000D01*
X75638750Y-82627000D01*
X75480000Y-82785750D01*
X72727000Y-82785750D01*
X72727000Y-78810305D01*
X72798691Y-78840000D01*
X73414250Y-78840000D01*
X73573000Y-78681250D01*
X73573000Y-78032000D01*
X73827000Y-78032000D01*
X73827000Y-78681250D01*
X73985750Y-78840000D01*
X74601309Y-78840000D01*
X74834698Y-78743327D01*
X75013327Y-78564699D01*
X75110000Y-78331310D01*
X75110000Y-78190750D01*
X74951250Y-78032000D01*
X73827000Y-78032000D01*
X73573000Y-78032000D01*
X73553000Y-78032000D01*
X73553000Y-77778000D01*
X73573000Y-77778000D01*
X73573000Y-77758000D01*
X73827000Y-77758000D01*
X73827000Y-77778000D01*
X74951250Y-77778000D01*
X75110000Y-77619250D01*
X75110000Y-77478690D01*
X75103087Y-77462000D01*
X76042447Y-77462000D01*
X76673000Y-78092554D01*
G36*
X77615000Y-76639283D02*
X78460000Y-76639283D01*
X78480000Y-76635305D01*
X78480000Y-76964250D01*
X78638750Y-77123000D01*
X79410500Y-77123000D01*
X79410500Y-77103000D01*
X79664500Y-77103000D01*
X79664500Y-77123000D01*
X79684500Y-77123000D01*
X79684500Y-77377000D01*
X79664500Y-77377000D01*
X79664500Y-78226250D01*
X79823250Y-78385000D01*
X80086309Y-78385000D01*
X80319698Y-78288327D01*
X80498327Y-78109699D01*
X80509016Y-78083894D01*
X80587959Y-78202041D01*
X80795357Y-78340620D01*
X81040000Y-78389283D01*
X81885000Y-78389283D01*
X82129643Y-78340620D01*
X82323000Y-78211423D01*
X82323000Y-78866024D01*
X82116025Y-79073000D01*
X79691520Y-79073000D01*
X79605596Y-78944405D01*
X79235986Y-78697440D01*
X78800001Y-78610717D01*
X78799999Y-78610717D01*
X78774999Y-78615690D01*
X78750000Y-78610717D01*
X78327000Y-78610717D01*
X78327000Y-77831442D01*
X78343200Y-77749999D01*
X78327000Y-77668556D01*
X78327000Y-77668552D01*
X78300584Y-77535750D01*
X78480000Y-77535750D01*
X78480000Y-77876310D01*
X78576673Y-78109699D01*
X78755302Y-78288327D01*
X78988691Y-78385000D01*
X79251750Y-78385000D01*
X79410500Y-78226250D01*
X79410500Y-77377000D01*
X78638750Y-77377000D01*
X78480000Y-77535750D01*
X78300584Y-77535750D01*
X78279016Y-77427321D01*
X78096233Y-77153767D01*
X78027184Y-77107630D01*
X77544891Y-76625337D01*
X77615000Y-76639283D01*
X77615000Y-76639283D01*
G37*
X77615000Y-76639283D02*
X78460000Y-76639283D01*
X78480000Y-76635305D01*
X78480000Y-76964250D01*
X78638750Y-77123000D01*
X79410500Y-77123000D01*
X79410500Y-77103000D01*
X79664500Y-77103000D01*
X79664500Y-77123000D01*
X79684500Y-77123000D01*
X79684500Y-77377000D01*
X79664500Y-77377000D01*
X79664500Y-78226250D01*
X79823250Y-78385000D01*
X80086309Y-78385000D01*
X80319698Y-78288327D01*
X80498327Y-78109699D01*
X80509016Y-78083894D01*
X80587959Y-78202041D01*
X80795357Y-78340620D01*
X81040000Y-78389283D01*
X81885000Y-78389283D01*
X82129643Y-78340620D01*
X82323000Y-78211423D01*
X82323000Y-78866024D01*
X82116025Y-79073000D01*
X79691520Y-79073000D01*
X79605596Y-78944405D01*
X79235986Y-78697440D01*
X78800001Y-78610717D01*
X78799999Y-78610717D01*
X78774999Y-78615690D01*
X78750000Y-78610717D01*
X78327000Y-78610717D01*
X78327000Y-77831442D01*
X78343200Y-77749999D01*
X78327000Y-77668556D01*
X78327000Y-77668552D01*
X78300584Y-77535750D01*
X78480000Y-77535750D01*
X78480000Y-77876310D01*
X78576673Y-78109699D01*
X78755302Y-78288327D01*
X78988691Y-78385000D01*
X79251750Y-78385000D01*
X79410500Y-78226250D01*
X79410500Y-77377000D01*
X78638750Y-77377000D01*
X78480000Y-77535750D01*
X78300584Y-77535750D01*
X78279016Y-77427321D01*
X78096233Y-77153767D01*
X78027184Y-77107630D01*
X77544891Y-76625337D01*
X77615000Y-76639283D01*
G36*
X84825736Y-36880613D02*
X84727073Y-37147468D01*
X85700000Y-38120395D01*
X86672927Y-37147468D01*
X86574264Y-36880613D01*
X86160785Y-36727000D01*
X98957762Y-36727000D01*
X99521772Y-36792757D01*
X100015548Y-36971989D01*
X100454856Y-37260012D01*
X100816118Y-37641368D01*
X101079961Y-38095606D01*
X101235115Y-38607886D01*
X101273000Y-39032379D01*
X101273000Y-60475104D01*
X101213438Y-60435305D01*
X100444696Y-59666564D01*
X100404137Y-59605863D01*
X100163661Y-59445182D01*
X99951599Y-59403000D01*
X99951595Y-59403000D01*
X99880000Y-59388759D01*
X99808405Y-59403000D01*
X99500741Y-59403000D01*
X99250905Y-59029095D01*
X98745806Y-58691598D01*
X98300393Y-58603000D01*
X96199607Y-58603000D01*
X95754194Y-58691598D01*
X95249095Y-59029095D01*
X95028837Y-59358734D01*
X95027183Y-59357629D01*
X94892372Y-59222818D01*
X94846233Y-59153767D01*
X94572679Y-58970984D01*
X94489283Y-58954395D01*
X94489283Y-58800000D01*
X94440620Y-58555357D01*
X94389500Y-58478851D01*
X94389500Y-58123531D01*
X94475620Y-57994643D01*
X94524283Y-57750000D01*
X94524283Y-56750000D01*
X94475620Y-56505357D01*
X94351769Y-56320000D01*
X94793085Y-56320000D01*
X94911598Y-56915806D01*
X95249095Y-57420905D01*
X95754194Y-57758402D01*
X96199607Y-57847000D01*
X98300393Y-57847000D01*
X98745806Y-57758402D01*
X99250905Y-57420905D01*
X99588402Y-56915806D01*
X99706915Y-56320000D01*
X99588402Y-55724194D01*
X99250905Y-55219095D01*
X98745806Y-54881598D01*
X98300393Y-54793000D01*
X96199607Y-54793000D01*
X95754194Y-54881598D01*
X95249095Y-55219095D01*
X94911598Y-55724194D01*
X94793085Y-56320000D01*
X94351769Y-56320000D01*
X94337041Y-56297959D01*
X94129643Y-56159380D01*
X93885000Y-56110717D01*
X93040000Y-56110717D01*
X92795357Y-56159380D01*
X92587959Y-56297959D01*
X92509016Y-56416106D01*
X92498327Y-56390301D01*
X92319698Y-56211673D01*
X92086309Y-56115000D01*
X91823250Y-56115000D01*
X91664500Y-56273750D01*
X91664500Y-57123000D01*
X91684500Y-57123000D01*
X91684500Y-57377000D01*
X91664500Y-57377000D01*
X91664500Y-57397000D01*
X91410500Y-57397000D01*
X91410500Y-57377000D01*
X90638750Y-57377000D01*
X90480000Y-57535750D01*
X90480000Y-57876310D01*
X90576673Y-58109699D01*
X90755302Y-58288327D01*
X90774996Y-58296485D01*
X90697959Y-58347959D01*
X90689579Y-58360500D01*
X90373531Y-58360500D01*
X90244643Y-58274380D01*
X90000000Y-58225717D01*
X89000000Y-58225717D01*
X88755357Y-58274380D01*
X88626469Y-58360500D01*
X87860421Y-58360500D01*
X87852041Y-58347959D01*
X87644643Y-58209380D01*
X87400000Y-58160717D01*
X85100000Y-58160717D01*
X84761588Y-58257635D01*
X84579794Y-58428424D01*
X84559679Y-58473000D01*
X83133912Y-58473000D01*
X83090620Y-58255357D01*
X82952041Y-58047959D01*
X82744643Y-57909380D01*
X82500000Y-57860717D01*
X79500000Y-57860717D01*
X79255357Y-57909380D01*
X79047959Y-58047959D01*
X78909380Y-58255357D01*
X78860717Y-58500000D01*
X78860717Y-60500000D01*
X78909380Y-60744643D01*
X79047959Y-60952041D01*
X79255357Y-61090620D01*
X79500000Y-61139283D01*
X82500000Y-61139283D01*
X82744643Y-61090620D01*
X82952041Y-60952041D01*
X83090620Y-60744643D01*
X83133912Y-60527000D01*
X84739732Y-60527000D01*
X85069415Y-62505097D01*
X85109380Y-62644643D01*
X85247959Y-62852041D01*
X85455357Y-62990620D01*
X85700000Y-63039283D01*
X86800000Y-63039283D01*
X86944217Y-63022804D01*
X87171576Y-62920206D01*
X87342365Y-62738412D01*
X87430585Y-62505097D01*
X87812351Y-60214500D01*
X88626469Y-60214500D01*
X88679599Y-60250000D01*
X88547959Y-60337959D01*
X88409380Y-60545357D01*
X88360717Y-60790000D01*
X88360717Y-61635000D01*
X88409380Y-61879643D01*
X88547959Y-62087041D01*
X88573000Y-62103773D01*
X88573001Y-65473000D01*
X87593601Y-65473000D01*
X87430585Y-64494903D01*
X87390620Y-64355357D01*
X87252041Y-64147959D01*
X87044643Y-64009380D01*
X86800000Y-63960717D01*
X85700000Y-63960717D01*
X85555783Y-63977196D01*
X85328424Y-64079794D01*
X85157635Y-64261588D01*
X85069415Y-64494903D01*
X84823066Y-65973000D01*
X82770556Y-65973000D01*
X82673001Y-65826999D01*
X82134824Y-65467400D01*
X81660242Y-65373000D01*
X80339758Y-65373000D01*
X79865176Y-65467400D01*
X79326999Y-65826999D01*
X79162626Y-66073000D01*
X74841300Y-66073000D01*
X74749999Y-66054839D01*
X74658698Y-66073000D01*
X74627000Y-66079305D01*
X74627000Y-59183975D01*
X77015258Y-56795717D01*
X83723000Y-56795717D01*
X83723000Y-57204283D01*
X83879352Y-57581749D01*
X84168251Y-57870648D01*
X84545717Y-58027000D01*
X84954283Y-58027000D01*
X85331749Y-57870648D01*
X85620648Y-57581749D01*
X85726168Y-57327001D01*
X86328404Y-57327001D01*
X86399999Y-57341242D01*
X86471594Y-57327001D01*
X86471598Y-57327001D01*
X86683660Y-57284819D01*
X86924136Y-57124138D01*
X86964695Y-57063437D01*
X88863443Y-55164691D01*
X88924136Y-55124137D01*
X88964690Y-55063444D01*
X88964695Y-55063439D01*
X89084818Y-54883661D01*
X89085228Y-54881598D01*
X89127000Y-54671599D01*
X89127000Y-54671595D01*
X89141241Y-54600000D01*
X89127000Y-54528405D01*
X89127000Y-51901132D01*
X91963441Y-49064692D01*
X92024136Y-49024137D01*
X92064692Y-48963441D01*
X92064694Y-48963439D01*
X92184818Y-48783661D01*
X92216626Y-48623750D01*
X92227000Y-48571599D01*
X92227000Y-48571596D01*
X92241241Y-48500001D01*
X92227000Y-48428406D01*
X92227000Y-44801132D01*
X94829077Y-42199056D01*
X94793085Y-42380000D01*
X94880816Y-42821052D01*
X93286562Y-44415306D01*
X93225864Y-44455863D01*
X93185307Y-44516561D01*
X93185306Y-44516562D01*
X93065182Y-44696340D01*
X93008759Y-44980000D01*
X93023001Y-45051600D01*
X93023000Y-49821598D01*
X93023001Y-49821603D01*
X93023000Y-51948866D01*
X89498868Y-55473000D01*
X89295717Y-55473000D01*
X88918251Y-55629352D01*
X88629352Y-55918251D01*
X88473000Y-56295717D01*
X88473000Y-56704283D01*
X88629352Y-57081749D01*
X88918251Y-57370648D01*
X89295717Y-57527000D01*
X89704283Y-57527000D01*
X90081749Y-57370648D01*
X90370648Y-57081749D01*
X90480000Y-56817751D01*
X90480000Y-56964250D01*
X90638750Y-57123000D01*
X91410500Y-57123000D01*
X91410500Y-56273750D01*
X91251750Y-56115000D01*
X90988691Y-56115000D01*
X90859704Y-56168428D01*
X94213444Y-52814690D01*
X94274136Y-52774137D01*
X94314690Y-52713444D01*
X94314695Y-52713439D01*
X94434818Y-52533661D01*
X94434818Y-52533660D01*
X94477000Y-52321599D01*
X94477000Y-52321595D01*
X94491241Y-52250000D01*
X94477000Y-52178405D01*
X94477000Y-50285750D01*
X94815000Y-50285750D01*
X94815000Y-51026309D01*
X94911673Y-51259698D01*
X95090301Y-51438327D01*
X95323690Y-51535000D01*
X96964250Y-51535000D01*
X97123000Y-51376250D01*
X97123000Y-50127000D01*
X97377000Y-50127000D01*
X97377000Y-51376250D01*
X97535750Y-51535000D01*
X99176310Y-51535000D01*
X99409699Y-51438327D01*
X99588327Y-51259698D01*
X99685000Y-51026309D01*
X99685000Y-50285750D01*
X99526250Y-50127000D01*
X97377000Y-50127000D01*
X97123000Y-50127000D01*
X94973750Y-50127000D01*
X94815000Y-50285750D01*
X94477000Y-50285750D01*
X94477000Y-48973691D01*
X94815000Y-48973691D01*
X94815000Y-49714250D01*
X94973750Y-49873000D01*
X97123000Y-49873000D01*
X97123000Y-48623750D01*
X97377000Y-48623750D01*
X97377000Y-49873000D01*
X99526250Y-49873000D01*
X99685000Y-49714250D01*
X99685000Y-48973691D01*
X99588327Y-48740302D01*
X99409699Y-48561673D01*
X99176310Y-48465000D01*
X97535750Y-48465000D01*
X97377000Y-48623750D01*
X97123000Y-48623750D01*
X96964250Y-48465000D01*
X95323690Y-48465000D01*
X95090301Y-48561673D01*
X94911673Y-48740302D01*
X94815000Y-48973691D01*
X94477000Y-48973691D01*
X94477000Y-46190000D01*
X94793085Y-46190000D01*
X94911598Y-46785806D01*
X95249095Y-47290905D01*
X95754194Y-47628402D01*
X96199607Y-47717000D01*
X98300393Y-47717000D01*
X98745806Y-47628402D01*
X99250905Y-47290905D01*
X99588402Y-46785806D01*
X99706915Y-46190000D01*
X99588402Y-45594194D01*
X99250905Y-45089095D01*
X98745806Y-44751598D01*
X98300393Y-44663000D01*
X96199607Y-44663000D01*
X95754194Y-44751598D01*
X95249095Y-45089095D01*
X94911598Y-45594194D01*
X94793085Y-46190000D01*
X94477000Y-46190000D01*
X94477000Y-45281132D01*
X95908948Y-43849184D01*
X96199607Y-43907000D01*
X98300393Y-43907000D01*
X98745806Y-43818402D01*
X99250905Y-43480905D01*
X99588402Y-42975806D01*
X99706915Y-42380000D01*
X99588402Y-41784194D01*
X99250905Y-41279095D01*
X98745806Y-40941598D01*
X98300393Y-40853000D01*
X97095132Y-40853000D01*
X97713440Y-40234693D01*
X97774136Y-40194137D01*
X97814692Y-40133441D01*
X97814694Y-40133439D01*
X97839042Y-40097000D01*
X98300393Y-40097000D01*
X98745806Y-40008402D01*
X99250905Y-39670905D01*
X99588402Y-39165806D01*
X99706915Y-38570000D01*
X99588402Y-37974194D01*
X99250905Y-37469095D01*
X98745806Y-37131598D01*
X98300393Y-37043000D01*
X96199607Y-37043000D01*
X95754194Y-37131598D01*
X95249095Y-37469095D01*
X94911598Y-37974194D01*
X94793085Y-38570000D01*
X94911598Y-39165806D01*
X95249095Y-39670905D01*
X95407972Y-39777064D01*
X95216339Y-39815182D01*
X94975863Y-39975863D01*
X94935306Y-40036561D01*
X91036562Y-43935306D01*
X90975864Y-43975863D01*
X90935307Y-44036561D01*
X90935306Y-44036562D01*
X90815182Y-44216340D01*
X90758759Y-44500000D01*
X90773001Y-44571600D01*
X90773000Y-48198867D01*
X87936562Y-51035306D01*
X87875864Y-51075863D01*
X87835307Y-51136561D01*
X87835306Y-51136562D01*
X87715182Y-51316340D01*
X87658759Y-51600000D01*
X87673001Y-51671600D01*
X87673000Y-54298866D01*
X86098867Y-55873001D01*
X85221593Y-55873001D01*
X85149998Y-55858760D01*
X85078403Y-55873001D01*
X85078400Y-55873001D01*
X84866338Y-55915183D01*
X84779809Y-55973000D01*
X84545717Y-55973000D01*
X84168251Y-56129352D01*
X83879352Y-56418251D01*
X83723000Y-56795717D01*
X77015258Y-56795717D01*
X79183976Y-54627000D01*
X84326074Y-54627000D01*
X84778378Y-55079304D01*
X85376370Y-55327000D01*
X86023630Y-55327000D01*
X86621622Y-55079304D01*
X87079304Y-54621622D01*
X87327000Y-54023630D01*
X87327000Y-53376370D01*
X87079304Y-52778378D01*
X86621622Y-52320696D01*
X86023630Y-52073000D01*
X85376370Y-52073000D01*
X84778378Y-52320696D01*
X84326074Y-52773000D01*
X78891300Y-52773000D01*
X78799999Y-52754839D01*
X78708699Y-52773000D01*
X78708698Y-52773000D01*
X78438303Y-52826785D01*
X78131670Y-53031670D01*
X78079951Y-53109073D01*
X73109074Y-58079951D01*
X73031671Y-58131670D01*
X72979952Y-58209073D01*
X72826786Y-58438303D01*
X72754839Y-58800000D01*
X72773001Y-58891305D01*
X72773000Y-67958698D01*
X72754839Y-68050000D01*
X72773000Y-68141300D01*
X72773001Y-73185952D01*
X72727000Y-73195102D01*
X72727000Y-44452606D01*
X77727074Y-39452532D01*
X84727073Y-39452532D01*
X84825736Y-39719387D01*
X85435461Y-39945908D01*
X86085460Y-39921856D01*
X86574264Y-39719387D01*
X86672927Y-39452532D01*
X85700000Y-38479605D01*
X84727073Y-39452532D01*
X77727074Y-39452532D01*
X79144145Y-38035461D01*
X84054092Y-38035461D01*
X84078144Y-38685460D01*
X84280613Y-39174264D01*
X84547468Y-39272927D01*
X85520395Y-38300000D01*
X85879605Y-38300000D01*
X86852532Y-39272927D01*
X87119387Y-39174264D01*
X87345908Y-38564539D01*
X87345630Y-38557022D01*
X89023000Y-38557022D01*
X89023000Y-39442978D01*
X89362040Y-40261494D01*
X89988506Y-40887960D01*
X90807022Y-41227000D01*
X91692978Y-41227000D01*
X92511494Y-40887960D01*
X93137960Y-40261494D01*
X93477000Y-39442978D01*
X93477000Y-38557022D01*
X93137960Y-37738506D01*
X92511494Y-37112040D01*
X91692978Y-36773000D01*
X90807022Y-36773000D01*
X89988506Y-37112040D01*
X89362040Y-37738506D01*
X89023000Y-38557022D01*
X87345630Y-38557022D01*
X87321856Y-37914540D01*
X87119387Y-37425736D01*
X86852532Y-37327073D01*
X85879605Y-38300000D01*
X85520395Y-38300000D01*
X84547468Y-37327073D01*
X84280613Y-37425736D01*
X84054092Y-38035461D01*
X79144145Y-38035461D01*
X80452606Y-36727000D01*
X85196591Y-36727000D01*
X84825736Y-36880613D01*
X84825736Y-36880613D01*
G37*
X84825736Y-36880613D02*
X84727073Y-37147468D01*
X85700000Y-38120395D01*
X86672927Y-37147468D01*
X86574264Y-36880613D01*
X86160785Y-36727000D01*
X98957762Y-36727000D01*
X99521772Y-36792757D01*
X100015548Y-36971989D01*
X100454856Y-37260012D01*
X100816118Y-37641368D01*
X101079961Y-38095606D01*
X101235115Y-38607886D01*
X101273000Y-39032379D01*
X101273000Y-60475104D01*
X101213438Y-60435305D01*
X100444696Y-59666564D01*
X100404137Y-59605863D01*
X100163661Y-59445182D01*
X99951599Y-59403000D01*
X99951595Y-59403000D01*
X99880000Y-59388759D01*
X99808405Y-59403000D01*
X99500741Y-59403000D01*
X99250905Y-59029095D01*
X98745806Y-58691598D01*
X98300393Y-58603000D01*
X96199607Y-58603000D01*
X95754194Y-58691598D01*
X95249095Y-59029095D01*
X95028837Y-59358734D01*
X95027183Y-59357629D01*
X94892372Y-59222818D01*
X94846233Y-59153767D01*
X94572679Y-58970984D01*
X94489283Y-58954395D01*
X94489283Y-58800000D01*
X94440620Y-58555357D01*
X94389500Y-58478851D01*
X94389500Y-58123531D01*
X94475620Y-57994643D01*
X94524283Y-57750000D01*
X94524283Y-56750000D01*
X94475620Y-56505357D01*
X94351769Y-56320000D01*
X94793085Y-56320000D01*
X94911598Y-56915806D01*
X95249095Y-57420905D01*
X95754194Y-57758402D01*
X96199607Y-57847000D01*
X98300393Y-57847000D01*
X98745806Y-57758402D01*
X99250905Y-57420905D01*
X99588402Y-56915806D01*
X99706915Y-56320000D01*
X99588402Y-55724194D01*
X99250905Y-55219095D01*
X98745806Y-54881598D01*
X98300393Y-54793000D01*
X96199607Y-54793000D01*
X95754194Y-54881598D01*
X95249095Y-55219095D01*
X94911598Y-55724194D01*
X94793085Y-56320000D01*
X94351769Y-56320000D01*
X94337041Y-56297959D01*
X94129643Y-56159380D01*
X93885000Y-56110717D01*
X93040000Y-56110717D01*
X92795357Y-56159380D01*
X92587959Y-56297959D01*
X92509016Y-56416106D01*
X92498327Y-56390301D01*
X92319698Y-56211673D01*
X92086309Y-56115000D01*
X91823250Y-56115000D01*
X91664500Y-56273750D01*
X91664500Y-57123000D01*
X91684500Y-57123000D01*
X91684500Y-57377000D01*
X91664500Y-57377000D01*
X91664500Y-57397000D01*
X91410500Y-57397000D01*
X91410500Y-57377000D01*
X90638750Y-57377000D01*
X90480000Y-57535750D01*
X90480000Y-57876310D01*
X90576673Y-58109699D01*
X90755302Y-58288327D01*
X90774996Y-58296485D01*
X90697959Y-58347959D01*
X90689579Y-58360500D01*
X90373531Y-58360500D01*
X90244643Y-58274380D01*
X90000000Y-58225717D01*
X89000000Y-58225717D01*
X88755357Y-58274380D01*
X88626469Y-58360500D01*
X87860421Y-58360500D01*
X87852041Y-58347959D01*
X87644643Y-58209380D01*
X87400000Y-58160717D01*
X85100000Y-58160717D01*
X84761588Y-58257635D01*
X84579794Y-58428424D01*
X84559679Y-58473000D01*
X83133912Y-58473000D01*
X83090620Y-58255357D01*
X82952041Y-58047959D01*
X82744643Y-57909380D01*
X82500000Y-57860717D01*
X79500000Y-57860717D01*
X79255357Y-57909380D01*
X79047959Y-58047959D01*
X78909380Y-58255357D01*
X78860717Y-58500000D01*
X78860717Y-60500000D01*
X78909380Y-60744643D01*
X79047959Y-60952041D01*
X79255357Y-61090620D01*
X79500000Y-61139283D01*
X82500000Y-61139283D01*
X82744643Y-61090620D01*
X82952041Y-60952041D01*
X83090620Y-60744643D01*
X83133912Y-60527000D01*
X84739732Y-60527000D01*
X85069415Y-62505097D01*
X85109380Y-62644643D01*
X85247959Y-62852041D01*
X85455357Y-62990620D01*
X85700000Y-63039283D01*
X86800000Y-63039283D01*
X86944217Y-63022804D01*
X87171576Y-62920206D01*
X87342365Y-62738412D01*
X87430585Y-62505097D01*
X87812351Y-60214500D01*
X88626469Y-60214500D01*
X88679599Y-60250000D01*
X88547959Y-60337959D01*
X88409380Y-60545357D01*
X88360717Y-60790000D01*
X88360717Y-61635000D01*
X88409380Y-61879643D01*
X88547959Y-62087041D01*
X88573000Y-62103773D01*
X88573001Y-65473000D01*
X87593601Y-65473000D01*
X87430585Y-64494903D01*
X87390620Y-64355357D01*
X87252041Y-64147959D01*
X87044643Y-64009380D01*
X86800000Y-63960717D01*
X85700000Y-63960717D01*
X85555783Y-63977196D01*
X85328424Y-64079794D01*
X85157635Y-64261588D01*
X85069415Y-64494903D01*
X84823066Y-65973000D01*
X82770556Y-65973000D01*
X82673001Y-65826999D01*
X82134824Y-65467400D01*
X81660242Y-65373000D01*
X80339758Y-65373000D01*
X79865176Y-65467400D01*
X79326999Y-65826999D01*
X79162626Y-66073000D01*
X74841300Y-66073000D01*
X74749999Y-66054839D01*
X74658698Y-66073000D01*
X74627000Y-66079305D01*
X74627000Y-59183975D01*
X77015258Y-56795717D01*
X83723000Y-56795717D01*
X83723000Y-57204283D01*
X83879352Y-57581749D01*
X84168251Y-57870648D01*
X84545717Y-58027000D01*
X84954283Y-58027000D01*
X85331749Y-57870648D01*
X85620648Y-57581749D01*
X85726168Y-57327001D01*
X86328404Y-57327001D01*
X86399999Y-57341242D01*
X86471594Y-57327001D01*
X86471598Y-57327001D01*
X86683660Y-57284819D01*
X86924136Y-57124138D01*
X86964695Y-57063437D01*
X88863443Y-55164691D01*
X88924136Y-55124137D01*
X88964690Y-55063444D01*
X88964695Y-55063439D01*
X89084818Y-54883661D01*
X89085228Y-54881598D01*
X89127000Y-54671599D01*
X89127000Y-54671595D01*
X89141241Y-54600000D01*
X89127000Y-54528405D01*
X89127000Y-51901132D01*
X91963441Y-49064692D01*
X92024136Y-49024137D01*
X92064692Y-48963441D01*
X92064694Y-48963439D01*
X92184818Y-48783661D01*
X92216626Y-48623750D01*
X92227000Y-48571599D01*
X92227000Y-48571596D01*
X92241241Y-48500001D01*
X92227000Y-48428406D01*
X92227000Y-44801132D01*
X94829077Y-42199056D01*
X94793085Y-42380000D01*
X94880816Y-42821052D01*
X93286562Y-44415306D01*
X93225864Y-44455863D01*
X93185307Y-44516561D01*
X93185306Y-44516562D01*
X93065182Y-44696340D01*
X93008759Y-44980000D01*
X93023001Y-45051600D01*
X93023000Y-49821598D01*
X93023001Y-49821603D01*
X93023000Y-51948866D01*
X89498868Y-55473000D01*
X89295717Y-55473000D01*
X88918251Y-55629352D01*
X88629352Y-55918251D01*
X88473000Y-56295717D01*
X88473000Y-56704283D01*
X88629352Y-57081749D01*
X88918251Y-57370648D01*
X89295717Y-57527000D01*
X89704283Y-57527000D01*
X90081749Y-57370648D01*
X90370648Y-57081749D01*
X90480000Y-56817751D01*
X90480000Y-56964250D01*
X90638750Y-57123000D01*
X91410500Y-57123000D01*
X91410500Y-56273750D01*
X91251750Y-56115000D01*
X90988691Y-56115000D01*
X90859704Y-56168428D01*
X94213444Y-52814690D01*
X94274136Y-52774137D01*
X94314690Y-52713444D01*
X94314695Y-52713439D01*
X94434818Y-52533661D01*
X94434818Y-52533660D01*
X94477000Y-52321599D01*
X94477000Y-52321595D01*
X94491241Y-52250000D01*
X94477000Y-52178405D01*
X94477000Y-50285750D01*
X94815000Y-50285750D01*
X94815000Y-51026309D01*
X94911673Y-51259698D01*
X95090301Y-51438327D01*
X95323690Y-51535000D01*
X96964250Y-51535000D01*
X97123000Y-51376250D01*
X97123000Y-50127000D01*
X97377000Y-50127000D01*
X97377000Y-51376250D01*
X97535750Y-51535000D01*
X99176310Y-51535000D01*
X99409699Y-51438327D01*
X99588327Y-51259698D01*
X99685000Y-51026309D01*
X99685000Y-50285750D01*
X99526250Y-50127000D01*
X97377000Y-50127000D01*
X97123000Y-50127000D01*
X94973750Y-50127000D01*
X94815000Y-50285750D01*
X94477000Y-50285750D01*
X94477000Y-48973691D01*
X94815000Y-48973691D01*
X94815000Y-49714250D01*
X94973750Y-49873000D01*
X97123000Y-49873000D01*
X97123000Y-48623750D01*
X97377000Y-48623750D01*
X97377000Y-49873000D01*
X99526250Y-49873000D01*
X99685000Y-49714250D01*
X99685000Y-48973691D01*
X99588327Y-48740302D01*
X99409699Y-48561673D01*
X99176310Y-48465000D01*
X97535750Y-48465000D01*
X97377000Y-48623750D01*
X97123000Y-48623750D01*
X96964250Y-48465000D01*
X95323690Y-48465000D01*
X95090301Y-48561673D01*
X94911673Y-48740302D01*
X94815000Y-48973691D01*
X94477000Y-48973691D01*
X94477000Y-46190000D01*
X94793085Y-46190000D01*
X94911598Y-46785806D01*
X95249095Y-47290905D01*
X95754194Y-47628402D01*
X96199607Y-47717000D01*
X98300393Y-47717000D01*
X98745806Y-47628402D01*
X99250905Y-47290905D01*
X99588402Y-46785806D01*
X99706915Y-46190000D01*
X99588402Y-45594194D01*
X99250905Y-45089095D01*
X98745806Y-44751598D01*
X98300393Y-44663000D01*
X96199607Y-44663000D01*
X95754194Y-44751598D01*
X95249095Y-45089095D01*
X94911598Y-45594194D01*
X94793085Y-46190000D01*
X94477000Y-46190000D01*
X94477000Y-45281132D01*
X95908948Y-43849184D01*
X96199607Y-43907000D01*
X98300393Y-43907000D01*
X98745806Y-43818402D01*
X99250905Y-43480905D01*
X99588402Y-42975806D01*
X99706915Y-42380000D01*
X99588402Y-41784194D01*
X99250905Y-41279095D01*
X98745806Y-40941598D01*
X98300393Y-40853000D01*
X97095132Y-40853000D01*
X97713440Y-40234693D01*
X97774136Y-40194137D01*
X97814692Y-40133441D01*
X97814694Y-40133439D01*
X97839042Y-40097000D01*
X98300393Y-40097000D01*
X98745806Y-40008402D01*
X99250905Y-39670905D01*
X99588402Y-39165806D01*
X99706915Y-38570000D01*
X99588402Y-37974194D01*
X99250905Y-37469095D01*
X98745806Y-37131598D01*
X98300393Y-37043000D01*
X96199607Y-37043000D01*
X95754194Y-37131598D01*
X95249095Y-37469095D01*
X94911598Y-37974194D01*
X94793085Y-38570000D01*
X94911598Y-39165806D01*
X95249095Y-39670905D01*
X95407972Y-39777064D01*
X95216339Y-39815182D01*
X94975863Y-39975863D01*
X94935306Y-40036561D01*
X91036562Y-43935306D01*
X90975864Y-43975863D01*
X90935307Y-44036561D01*
X90935306Y-44036562D01*
X90815182Y-44216340D01*
X90758759Y-44500000D01*
X90773001Y-44571600D01*
X90773000Y-48198867D01*
X87936562Y-51035306D01*
X87875864Y-51075863D01*
X87835307Y-51136561D01*
X87835306Y-51136562D01*
X87715182Y-51316340D01*
X87658759Y-51600000D01*
X87673001Y-51671600D01*
X87673000Y-54298866D01*
X86098867Y-55873001D01*
X85221593Y-55873001D01*
X85149998Y-55858760D01*
X85078403Y-55873001D01*
X85078400Y-55873001D01*
X84866338Y-55915183D01*
X84779809Y-55973000D01*
X84545717Y-55973000D01*
X84168251Y-56129352D01*
X83879352Y-56418251D01*
X83723000Y-56795717D01*
X77015258Y-56795717D01*
X79183976Y-54627000D01*
X84326074Y-54627000D01*
X84778378Y-55079304D01*
X85376370Y-55327000D01*
X86023630Y-55327000D01*
X86621622Y-55079304D01*
X87079304Y-54621622D01*
X87327000Y-54023630D01*
X87327000Y-53376370D01*
X87079304Y-52778378D01*
X86621622Y-52320696D01*
X86023630Y-52073000D01*
X85376370Y-52073000D01*
X84778378Y-52320696D01*
X84326074Y-52773000D01*
X78891300Y-52773000D01*
X78799999Y-52754839D01*
X78708699Y-52773000D01*
X78708698Y-52773000D01*
X78438303Y-52826785D01*
X78131670Y-53031670D01*
X78079951Y-53109073D01*
X73109074Y-58079951D01*
X73031671Y-58131670D01*
X72979952Y-58209073D01*
X72826786Y-58438303D01*
X72754839Y-58800000D01*
X72773001Y-58891305D01*
X72773000Y-67958698D01*
X72754839Y-68050000D01*
X72773000Y-68141300D01*
X72773001Y-73185952D01*
X72727000Y-73195102D01*
X72727000Y-44452606D01*
X77727074Y-39452532D01*
X84727073Y-39452532D01*
X84825736Y-39719387D01*
X85435461Y-39945908D01*
X86085460Y-39921856D01*
X86574264Y-39719387D01*
X86672927Y-39452532D01*
X85700000Y-38479605D01*
X84727073Y-39452532D01*
X77727074Y-39452532D01*
X79144145Y-38035461D01*
X84054092Y-38035461D01*
X84078144Y-38685460D01*
X84280613Y-39174264D01*
X84547468Y-39272927D01*
X85520395Y-38300000D01*
X85879605Y-38300000D01*
X86852532Y-39272927D01*
X87119387Y-39174264D01*
X87345908Y-38564539D01*
X87345630Y-38557022D01*
X89023000Y-38557022D01*
X89023000Y-39442978D01*
X89362040Y-40261494D01*
X89988506Y-40887960D01*
X90807022Y-41227000D01*
X91692978Y-41227000D01*
X92511494Y-40887960D01*
X93137960Y-40261494D01*
X93477000Y-39442978D01*
X93477000Y-38557022D01*
X93137960Y-37738506D01*
X92511494Y-37112040D01*
X91692978Y-36773000D01*
X90807022Y-36773000D01*
X89988506Y-37112040D01*
X89362040Y-37738506D01*
X89023000Y-38557022D01*
X87345630Y-38557022D01*
X87321856Y-37914540D01*
X87119387Y-37425736D01*
X86852532Y-37327073D01*
X85879605Y-38300000D01*
X85520395Y-38300000D01*
X84547468Y-37327073D01*
X84280613Y-37425736D01*
X84054092Y-38035461D01*
X79144145Y-38035461D01*
X80452606Y-36727000D01*
X85196591Y-36727000D01*
X84825736Y-36880613D01*
G36*
X92597959Y-61152041D02*
X92718300Y-61232450D01*
X92627000Y-61323750D01*
X92627000Y-62623000D01*
X93376250Y-62623000D01*
X93535000Y-62464250D01*
X93535000Y-61673691D01*
X93438327Y-61440302D01*
X93337309Y-61339283D01*
X93673001Y-61339283D01*
X93673000Y-68157445D01*
X92657447Y-69173000D01*
X79581442Y-69173000D01*
X79499999Y-69156800D01*
X79418556Y-69173000D01*
X79418552Y-69173000D01*
X79177321Y-69220984D01*
X78903767Y-69403767D01*
X78857630Y-69472816D01*
X78372817Y-69957630D01*
X78303768Y-70003767D01*
X78257631Y-70072816D01*
X78120984Y-70277322D01*
X78056800Y-70600000D01*
X78073001Y-70681448D01*
X78073001Y-70878915D01*
X77690247Y-71261669D01*
X77630000Y-71407119D01*
X77569753Y-71261669D01*
X77168331Y-70860247D01*
X76643848Y-70643000D01*
X76076152Y-70643000D01*
X75551669Y-70860247D01*
X75150247Y-71261669D01*
X74933000Y-71786152D01*
X74933000Y-72353848D01*
X75150247Y-72878331D01*
X75439916Y-73168000D01*
X74627000Y-73168000D01*
X74627000Y-68433975D01*
X75133976Y-67927000D01*
X79162626Y-67927000D01*
X79326999Y-68173001D01*
X79865176Y-68532600D01*
X80339758Y-68627000D01*
X81660242Y-68627000D01*
X82134824Y-68532600D01*
X82673001Y-68173001D01*
X82770556Y-68027000D01*
X84480732Y-68027000D01*
X84469415Y-68094903D01*
X84509380Y-68444643D01*
X84647959Y-68652041D01*
X84855357Y-68790620D01*
X85100000Y-68839283D01*
X87400000Y-68839283D01*
X87738412Y-68742365D01*
X87920206Y-68571576D01*
X88022804Y-68344217D01*
X88030585Y-68094903D01*
X87902601Y-67327000D01*
X89008700Y-67327000D01*
X89100000Y-67345161D01*
X89191300Y-67327000D01*
X90954296Y-67327000D01*
X91195717Y-67427000D01*
X91604283Y-67427000D01*
X91981749Y-67270648D01*
X92270648Y-66981749D01*
X92427000Y-66604283D01*
X92427000Y-66195717D01*
X92270648Y-65818251D01*
X91981749Y-65529352D01*
X91604283Y-65373000D01*
X91195717Y-65373000D01*
X90954296Y-65473000D01*
X90427000Y-65473000D01*
X90427000Y-63035750D01*
X91465000Y-63035750D01*
X91465000Y-63826309D01*
X91561673Y-64059698D01*
X91740301Y-64238327D01*
X91973690Y-64335000D01*
X92214250Y-64335000D01*
X92373000Y-64176250D01*
X92373000Y-62877000D01*
X92627000Y-62877000D01*
X92627000Y-64176250D01*
X92785750Y-64335000D01*
X93026310Y-64335000D01*
X93259699Y-64238327D01*
X93438327Y-64059698D01*
X93535000Y-63826309D01*
X93535000Y-63035750D01*
X93376250Y-62877000D01*
X92627000Y-62877000D01*
X92373000Y-62877000D01*
X91623750Y-62877000D01*
X91465000Y-63035750D01*
X90427000Y-63035750D01*
X90427000Y-62103773D01*
X90452041Y-62087041D01*
X90590620Y-61879643D01*
X90639283Y-61635000D01*
X90639283Y-61064226D01*
X90697959Y-61152041D01*
X90905357Y-61290620D01*
X91150000Y-61339283D01*
X91662691Y-61339283D01*
X91561673Y-61440302D01*
X91465000Y-61673691D01*
X91465000Y-62464250D01*
X91623750Y-62623000D01*
X92373000Y-62623000D01*
X92373000Y-61323750D01*
X92281700Y-61232450D01*
X92402041Y-61152041D01*
X92500000Y-61005435D01*
X92597959Y-61152041D01*
X92597959Y-61152041D01*
G37*
X92597959Y-61152041D02*
X92718300Y-61232450D01*
X92627000Y-61323750D01*
X92627000Y-62623000D01*
X93376250Y-62623000D01*
X93535000Y-62464250D01*
X93535000Y-61673691D01*
X93438327Y-61440302D01*
X93337309Y-61339283D01*
X93673001Y-61339283D01*
X93673000Y-68157445D01*
X92657447Y-69173000D01*
X79581442Y-69173000D01*
X79499999Y-69156800D01*
X79418556Y-69173000D01*
X79418552Y-69173000D01*
X79177321Y-69220984D01*
X78903767Y-69403767D01*
X78857630Y-69472816D01*
X78372817Y-69957630D01*
X78303768Y-70003767D01*
X78257631Y-70072816D01*
X78120984Y-70277322D01*
X78056800Y-70600000D01*
X78073001Y-70681448D01*
X78073001Y-70878915D01*
X77690247Y-71261669D01*
X77630000Y-71407119D01*
X77569753Y-71261669D01*
X77168331Y-70860247D01*
X76643848Y-70643000D01*
X76076152Y-70643000D01*
X75551669Y-70860247D01*
X75150247Y-71261669D01*
X74933000Y-71786152D01*
X74933000Y-72353848D01*
X75150247Y-72878331D01*
X75439916Y-73168000D01*
X74627000Y-73168000D01*
X74627000Y-68433975D01*
X75133976Y-67927000D01*
X79162626Y-67927000D01*
X79326999Y-68173001D01*
X79865176Y-68532600D01*
X80339758Y-68627000D01*
X81660242Y-68627000D01*
X82134824Y-68532600D01*
X82673001Y-68173001D01*
X82770556Y-68027000D01*
X84480732Y-68027000D01*
X84469415Y-68094903D01*
X84509380Y-68444643D01*
X84647959Y-68652041D01*
X84855357Y-68790620D01*
X85100000Y-68839283D01*
X87400000Y-68839283D01*
X87738412Y-68742365D01*
X87920206Y-68571576D01*
X88022804Y-68344217D01*
X88030585Y-68094903D01*
X87902601Y-67327000D01*
X89008700Y-67327000D01*
X89100000Y-67345161D01*
X89191300Y-67327000D01*
X90954296Y-67327000D01*
X91195717Y-67427000D01*
X91604283Y-67427000D01*
X91981749Y-67270648D01*
X92270648Y-66981749D01*
X92427000Y-66604283D01*
X92427000Y-66195717D01*
X92270648Y-65818251D01*
X91981749Y-65529352D01*
X91604283Y-65373000D01*
X91195717Y-65373000D01*
X90954296Y-65473000D01*
X90427000Y-65473000D01*
X90427000Y-63035750D01*
X91465000Y-63035750D01*
X91465000Y-63826309D01*
X91561673Y-64059698D01*
X91740301Y-64238327D01*
X91973690Y-64335000D01*
X92214250Y-64335000D01*
X92373000Y-64176250D01*
X92373000Y-62877000D01*
X92627000Y-62877000D01*
X92627000Y-64176250D01*
X92785750Y-64335000D01*
X93026310Y-64335000D01*
X93259699Y-64238327D01*
X93438327Y-64059698D01*
X93535000Y-63826309D01*
X93535000Y-63035750D01*
X93376250Y-62877000D01*
X92627000Y-62877000D01*
X92373000Y-62877000D01*
X91623750Y-62877000D01*
X91465000Y-63035750D01*
X90427000Y-63035750D01*
X90427000Y-62103773D01*
X90452041Y-62087041D01*
X90590620Y-61879643D01*
X90639283Y-61635000D01*
X90639283Y-61064226D01*
X90697959Y-61152041D01*
X90905357Y-61290620D01*
X91150000Y-61339283D01*
X91662691Y-61339283D01*
X91561673Y-61440302D01*
X91465000Y-61673691D01*
X91465000Y-62464250D01*
X91623750Y-62623000D01*
X92373000Y-62623000D01*
X92373000Y-61323750D01*
X92281700Y-61232450D01*
X92402041Y-61152041D01*
X92500000Y-61005435D01*
X92597959Y-61152041D01*
G36*
X100023001Y-61301134D02*
X100023001Y-70373000D01*
X95500000Y-70373000D01*
X95451399Y-70382667D01*
X95410197Y-70410197D01*
X95382667Y-70451399D01*
X95373000Y-70500000D01*
X95373000Y-71317792D01*
X95349753Y-71261669D01*
X94948331Y-70860247D01*
X94423848Y-70643000D01*
X93856152Y-70643000D01*
X93331669Y-70860247D01*
X92930247Y-71261669D01*
X92870000Y-71407119D01*
X92809753Y-71261669D01*
X92408331Y-70860247D01*
X92328065Y-70827000D01*
X92918556Y-70827000D01*
X93000000Y-70843200D01*
X93081444Y-70827000D01*
X93081448Y-70827000D01*
X93322679Y-70779016D01*
X93596233Y-70596233D01*
X93642372Y-70527181D01*
X95027187Y-69142368D01*
X95037471Y-69135497D01*
X95090301Y-69188327D01*
X95323690Y-69285000D01*
X96964250Y-69285000D01*
X97123000Y-69126250D01*
X97123000Y-67877000D01*
X97377000Y-67877000D01*
X97377000Y-69126250D01*
X97535750Y-69285000D01*
X99176310Y-69285000D01*
X99409699Y-69188327D01*
X99588327Y-69009698D01*
X99685000Y-68776309D01*
X99685000Y-68035750D01*
X99526250Y-67877000D01*
X97377000Y-67877000D01*
X97123000Y-67877000D01*
X97103000Y-67877000D01*
X97103000Y-67623000D01*
X97123000Y-67623000D01*
X97123000Y-66373750D01*
X97377000Y-66373750D01*
X97377000Y-67623000D01*
X99526250Y-67623000D01*
X99685000Y-67464250D01*
X99685000Y-66723691D01*
X99588327Y-66490302D01*
X99409699Y-66311673D01*
X99176310Y-66215000D01*
X97535750Y-66215000D01*
X97377000Y-66373750D01*
X97123000Y-66373750D01*
X96964250Y-66215000D01*
X95327000Y-66215000D01*
X95327000Y-65092960D01*
X95754194Y-65378402D01*
X96199607Y-65467000D01*
X98300393Y-65467000D01*
X98745806Y-65378402D01*
X99250905Y-65040905D01*
X99588402Y-64535806D01*
X99706915Y-63940000D01*
X99588402Y-63344194D01*
X99250905Y-62839095D01*
X98745806Y-62501598D01*
X98300393Y-62413000D01*
X96199607Y-62413000D01*
X95754194Y-62501598D01*
X95327000Y-62787040D01*
X95327000Y-61282960D01*
X95754194Y-61568402D01*
X96199607Y-61657000D01*
X98300393Y-61657000D01*
X98745806Y-61568402D01*
X99250905Y-61230905D01*
X99500741Y-60857000D01*
X99578868Y-60857000D01*
X100023001Y-61301134D01*
X100023001Y-61301134D01*
G37*
X100023001Y-61301134D02*
X100023001Y-70373000D01*
X95500000Y-70373000D01*
X95451399Y-70382667D01*
X95410197Y-70410197D01*
X95382667Y-70451399D01*
X95373000Y-70500000D01*
X95373000Y-71317792D01*
X95349753Y-71261669D01*
X94948331Y-70860247D01*
X94423848Y-70643000D01*
X93856152Y-70643000D01*
X93331669Y-70860247D01*
X92930247Y-71261669D01*
X92870000Y-71407119D01*
X92809753Y-71261669D01*
X92408331Y-70860247D01*
X92328065Y-70827000D01*
X92918556Y-70827000D01*
X93000000Y-70843200D01*
X93081444Y-70827000D01*
X93081448Y-70827000D01*
X93322679Y-70779016D01*
X93596233Y-70596233D01*
X93642372Y-70527181D01*
X95027187Y-69142368D01*
X95037471Y-69135497D01*
X95090301Y-69188327D01*
X95323690Y-69285000D01*
X96964250Y-69285000D01*
X97123000Y-69126250D01*
X97123000Y-67877000D01*
X97377000Y-67877000D01*
X97377000Y-69126250D01*
X97535750Y-69285000D01*
X99176310Y-69285000D01*
X99409699Y-69188327D01*
X99588327Y-69009698D01*
X99685000Y-68776309D01*
X99685000Y-68035750D01*
X99526250Y-67877000D01*
X97377000Y-67877000D01*
X97123000Y-67877000D01*
X97103000Y-67877000D01*
X97103000Y-67623000D01*
X97123000Y-67623000D01*
X97123000Y-66373750D01*
X97377000Y-66373750D01*
X97377000Y-67623000D01*
X99526250Y-67623000D01*
X99685000Y-67464250D01*
X99685000Y-66723691D01*
X99588327Y-66490302D01*
X99409699Y-66311673D01*
X99176310Y-66215000D01*
X97535750Y-66215000D01*
X97377000Y-66373750D01*
X97123000Y-66373750D01*
X96964250Y-66215000D01*
X95327000Y-66215000D01*
X95327000Y-65092960D01*
X95754194Y-65378402D01*
X96199607Y-65467000D01*
X98300393Y-65467000D01*
X98745806Y-65378402D01*
X99250905Y-65040905D01*
X99588402Y-64535806D01*
X99706915Y-63940000D01*
X99588402Y-63344194D01*
X99250905Y-62839095D01*
X98745806Y-62501598D01*
X98300393Y-62413000D01*
X96199607Y-62413000D01*
X95754194Y-62501598D01*
X95327000Y-62787040D01*
X95327000Y-61282960D01*
X95754194Y-61568402D01*
X96199607Y-61657000D01*
X98300393Y-61657000D01*
X98745806Y-61568402D01*
X99250905Y-61230905D01*
X99500741Y-60857000D01*
X99578868Y-60857000D01*
X100023001Y-61301134D01*
G36*
X67873000Y-43052606D02*
X67873000Y-52947394D01*
X64947394Y-55873000D01*
X58000000Y-55873000D01*
X57951399Y-55882667D01*
X57910197Y-55910197D01*
X56910197Y-56910197D01*
X56882667Y-56951399D01*
X56873000Y-57000000D01*
X56873000Y-59947394D01*
X55947394Y-60873000D01*
X54294548Y-60873000D01*
X53477000Y-60218961D01*
X53477000Y-54879153D01*
X53453424Y-54760629D01*
X53453424Y-54760625D01*
X53447710Y-54731896D01*
X56052606Y-52127000D01*
X63000000Y-52127000D01*
X63048601Y-52117333D01*
X63089803Y-52089803D01*
X64089803Y-51089803D01*
X64117333Y-51048601D01*
X64127000Y-51000000D01*
X64127000Y-45000000D01*
X64117333Y-44951399D01*
X64089803Y-44910197D01*
X63089803Y-43910197D01*
X63048601Y-43882667D01*
X63000000Y-43873000D01*
X58872792Y-43873000D01*
X58872058Y-43872696D01*
X58489375Y-43796576D01*
X58489371Y-43796576D01*
X58370847Y-43773000D01*
X47127000Y-43773000D01*
X47127000Y-40127000D01*
X64947394Y-40127000D01*
X67873000Y-43052606D01*
X67873000Y-43052606D01*
G37*
X67873000Y-43052606D02*
X67873000Y-52947394D01*
X64947394Y-55873000D01*
X58000000Y-55873000D01*
X57951399Y-55882667D01*
X57910197Y-55910197D01*
X56910197Y-56910197D01*
X56882667Y-56951399D01*
X56873000Y-57000000D01*
X56873000Y-59947394D01*
X55947394Y-60873000D01*
X54294548Y-60873000D01*
X53477000Y-60218961D01*
X53477000Y-54879153D01*
X53453424Y-54760629D01*
X53453424Y-54760625D01*
X53447710Y-54731896D01*
X56052606Y-52127000D01*
X63000000Y-52127000D01*
X63048601Y-52117333D01*
X63089803Y-52089803D01*
X64089803Y-51089803D01*
X64117333Y-51048601D01*
X64127000Y-51000000D01*
X64127000Y-45000000D01*
X64117333Y-44951399D01*
X64089803Y-44910197D01*
X63089803Y-43910197D01*
X63048601Y-43882667D01*
X63000000Y-43873000D01*
X58872792Y-43873000D01*
X58872058Y-43872696D01*
X58489375Y-43796576D01*
X58489371Y-43796576D01*
X58370847Y-43773000D01*
X47127000Y-43773000D01*
X47127000Y-40127000D01*
X64947394Y-40127000D01*
X67873000Y-43052606D01*
G36*
X68773000Y-60452606D02*
X68773000Y-75185921D01*
X67525000Y-75185921D01*
X67414001Y-75208000D01*
X67005540Y-75208000D01*
X66865000Y-75180045D01*
X66724460Y-75208000D01*
X66724456Y-75208000D01*
X66443493Y-75263887D01*
X65127000Y-73947394D01*
X65127000Y-62000000D01*
X65117333Y-61951399D01*
X65089803Y-61910197D01*
X64589803Y-61410197D01*
X64548601Y-61382667D01*
X64500000Y-61373000D01*
X63664779Y-61373000D01*
X63564370Y-61305909D01*
X63564367Y-61305906D01*
X63122058Y-61122696D01*
X62739375Y-61046576D01*
X62739371Y-61046576D01*
X62620847Y-61023000D01*
X60202606Y-61023000D01*
X59627000Y-60447394D01*
X59627000Y-58552606D01*
X60552606Y-57627000D01*
X65947394Y-57627000D01*
X68773000Y-60452606D01*
X68773000Y-60452606D01*
G37*
X68773000Y-60452606D02*
X68773000Y-75185921D01*
X67525000Y-75185921D01*
X67414001Y-75208000D01*
X67005540Y-75208000D01*
X66865000Y-75180045D01*
X66724460Y-75208000D01*
X66724456Y-75208000D01*
X66443493Y-75263887D01*
X65127000Y-73947394D01*
X65127000Y-62000000D01*
X65117333Y-61951399D01*
X65089803Y-61910197D01*
X64589803Y-61410197D01*
X64548601Y-61382667D01*
X64500000Y-61373000D01*
X63664779Y-61373000D01*
X63564370Y-61305909D01*
X63564367Y-61305906D01*
X63122058Y-61122696D01*
X62739375Y-61046576D01*
X62739371Y-61046576D01*
X62620847Y-61023000D01*
X60202606Y-61023000D01*
X59627000Y-60447394D01*
X59627000Y-58552606D01*
X60552606Y-57627000D01*
X65947394Y-57627000D01*
X68773000Y-60452606D01*
G36*
X66368212Y-76709204D02*
X66784456Y-76792000D01*
X66784459Y-76792000D01*
X66924999Y-76819955D01*
X67065539Y-76792000D01*
X67414001Y-76792000D01*
X67525000Y-76814079D01*
X68773000Y-76814079D01*
X68773000Y-83547394D01*
X64947394Y-87373000D01*
X48552606Y-87373000D01*
X47127000Y-85947394D01*
X47127000Y-84177000D01*
X62120847Y-84177000D01*
X62239371Y-84153424D01*
X62239375Y-84153424D01*
X62622058Y-84077304D01*
X63064367Y-83894094D01*
X63064370Y-83894091D01*
X63388791Y-83677321D01*
X63727320Y-83338792D01*
X63727321Y-83338789D01*
X63944093Y-83014368D01*
X63944094Y-83014367D01*
X63964497Y-82965109D01*
X65089803Y-81839803D01*
X65117333Y-81798601D01*
X65127000Y-81750000D01*
X65127000Y-77652606D01*
X66189688Y-76589918D01*
X66368212Y-76709204D01*
X66368212Y-76709204D01*
G37*
X66368212Y-76709204D02*
X66784456Y-76792000D01*
X66784459Y-76792000D01*
X66924999Y-76819955D01*
X67065539Y-76792000D01*
X67414001Y-76792000D01*
X67525000Y-76814079D01*
X68773000Y-76814079D01*
X68773000Y-83547394D01*
X64947394Y-87373000D01*
X48552606Y-87373000D01*
X47127000Y-85947394D01*
X47127000Y-84177000D01*
X62120847Y-84177000D01*
X62239371Y-84153424D01*
X62239375Y-84153424D01*
X62622058Y-84077304D01*
X63064367Y-83894094D01*
X63064370Y-83894091D01*
X63388791Y-83677321D01*
X63727320Y-83338792D01*
X63727321Y-83338789D01*
X63944093Y-83014368D01*
X63944094Y-83014367D01*
X63964497Y-82965109D01*
X65089803Y-81839803D01*
X65117333Y-81798601D01*
X65127000Y-81750000D01*
X65127000Y-77652606D01*
X66189688Y-76589918D01*
X66368212Y-76709204D01*
M02*
