M48
;DRILL file {KiCad (5.0.0-rc2-dev-158-g52ab6216c)} date 04/09/18 21:56:38
;FORMAT={2:4/ absolute / inch / suppress leading zeros}
FMAT,2
INCH,TZ
T1C0.0157
T2C0.0315
T3C0.0394
T4C0.0472
T5C0.0512
T6C0.0551
T7C0.1260
%
G90
G05
M72
T1
X29429Y-32480
X29921Y-29724
X30807Y-30315
X31102Y-36417
X32283Y-29724
X32579Y-36417
X33366Y-22441
X35236Y-22244
X35984Y-26142
X36417Y-25394
X36575Y-29213
X37008Y-29882
X37106Y-21850
T2
X30063Y-28374
X30063Y-37374
X31063Y-28374
X31063Y-37374
X32063Y-28374
X32063Y-37374
X33063Y-28374
X33063Y-37374
X34063Y-28374
X34063Y-37374
X35063Y-28374
X35063Y-37374
X36063Y-28374
X36063Y-37374
X37063Y-28374
X37063Y-37374
T3
X22165Y-17126
X22165Y-19094
X33740Y-15079
X33740Y-21142
T4
X38287Y-15185
X38287Y-22173
X38287Y-23673
X38287Y-25173
X38287Y-26673
X38287Y-16685
X38287Y-18185
X38287Y-19685
X38287Y-31449
X38287Y-32949
X38287Y-34449
T5
X21913Y-23425
X21913Y-26378
X23898Y-23425
X23898Y-26378
X31890Y-23425
X31890Y-26378
T6
X19291Y-17028
X19291Y-18996
X19291Y-31299
X19291Y-33268
T7
X17717Y-37402
X38976Y-37402
X35925Y-15354
T0
M30
